<!-- icon666.com - MILLIONS vector ICONS FREE --><svg id="Layer_1" enable-background="new 0 0 468 468" viewBox="0 0 468 468" xmlns="http://www.w3.org/2000/svg" xmlns:xlink="http://www.w3.org/1999/xlink"><defs><ellipse id="SVGID_1_" cx="57" cy="161.968" rx="17.469" ry="17.5"></ellipse><clipPath id="SVGID_2_"><use xlink:href="#SVGID_1_"></use></clipPath><clipPath id="SVGID_4_"><ellipse id="SVGID_3_" cx="335.428" cy="97.917" rx="22.486" ry="22.526"></ellipse></clipPath><clipPath id="SVGID_6_"><ellipse id="SVGID_5_" cx="335.428" cy="156.061" rx="22.486" ry="22.526"></ellipse></clipPath></defs><g><g><g><g><g><path d="m319.712 413.011v-18.231l-11.977-1.735c-.89-3.191-2.161-6.221-3.764-9.043l7.238-9.663-12.945-12.891-9.703 7.208c-2.833-1.596-5.877-2.862-9.08-3.748l-1.742-11.927h-18.307l-1.742 11.927c-3.204.886-6.247 2.152-9.08 3.748l-9.703-7.208-12.945 12.891 7.238 9.663c-1.603 2.821-2.874 5.852-3.764 9.043l-11.977 1.735v18.231l11.977 1.735c.89 3.191 2.161 6.221 3.764 9.043l-7.238 9.663 12.945 12.891 9.703-7.208c2.833 1.596 5.877 2.862 9.08 3.748l1.742 11.927h18.307l1.742-11.927c3.204-.886 6.247-2.152 9.08-3.748l9.703 7.208 12.945-12.891-7.238-9.663c1.603-2.821 2.874-5.852 3.764-9.043z" fill="#e2d2f7"></path></g></g></g><g><g><g><ellipse cx="268.586" cy="403.895" fill="#fff" rx="30.377" ry="30.306"></ellipse></g></g></g></g><g><g><g><g><g><g><g><path d="m14 392.764v-309.634c0-5.624 4.559-10.183 10.183-10.183h419.634c5.624 0 10.183 4.559 10.183 10.183v309.634c0 5.624-4.559 10.183-10.183 10.183h-419.634c-5.624 0-10.183-4.559-10.183-10.183z" fill="#131c46"></path></g></g></g><g><g><g><g><path d="m209.637 38.648c0-14.06-11.398-25.457-25.457-25.457-14.06 0-25.457 11.398-25.457 25.457s25.457 45.298 25.457 45.298 25.457-31.239 25.457-45.298z" fill="#865acc"></path></g></g></g><g><g><g><circle cx="184.18" cy="39.1" fill="#fff" r="14.172"></circle></g></g></g></g><g><g><g><path d="m32 90.947h404v294h-404z" fill="#f0e8f9"></path></g></g></g><g><g><g><g><path d="m259.306 177.036c29.992 0 54.306 24.407 54.306 54.515.016 29.972-24.195 54.506-54.306 54.516-30.112-.01-54.322-24.543-54.306-54.516 0-30.108 24.314-54.515 54.306-54.515z" fill="#fff"></path></g></g></g><g><g><g><path d="m259.306 286.067c-15.845 0-30.103-6.814-40.031-17.68v-5.872c0-16.423 13.262-29.736 29.621-29.736h20.819c16.359 0 29.621 13.313 29.621 29.736v5.872c-9.927 10.866-24.185 17.68-40.03 17.68z" fill="#f955af"></path></g></g></g><g><g><g><g><path d="m236.139 273.091c-3.092-2.64-4.864-6.51-4.864-10.576 0-16.423 13.262-29.736 29.622-29.736h-12c-16.359 0-29.622 13.313-29.622 29.736v5.873c9.927 10.866 24.186 17.68 40.031 17.68 2.028 0 4.029-.115 6-.333-11.062-1.222-21.124-5.777-29.167-12.644z" fill="#f7199e"></path></g></g></g></g><g><g><g><path d="m259.511 244.915h-.409c-6.177 0-11.184-5.007-11.184-11.184v-15.544h22.778v15.544c-.001 6.177-5.009 11.184-11.185 11.184z" fill="#f9a395"></path></g></g></g><g><g><g><path d="m259.692 228.692h-.772c-11.656 0-21.106-9.449-21.106-21.106v-31.861h42.983v31.861c.001 11.657-9.449 21.106-21.105 21.106z" fill="#ffc0b3"></path></g></g></g><g><g><g><path d="m240.573 166.062c-.605-1.153-2.118-1.438-3.097-.585-15.522 13.528.921 35.339.921 35.339 0-.377-1.534-16.029 4.376-20.002 0 0 5.63 6.928 13.739 5.167 0 0-1.513-3.405-1.014-5.167 0 0 8.109 7.045 23.33 2.139 0 0 2.731 11.844 2.131 19.498 0 0 15.391-24.614.014-38.767-5.315-4.892-14.037-7.975-21.224-7.584-6.107.333-14.531 3.27-19.176 9.962z" fill="#333"></path></g></g></g><g><g><g><path d="m245.476 167.477c.979-.853 2.491-.569 3.097.585 4.646-6.692 13.07-9.629 19.177-9.961 1.345-.073 2.744-.025 4.164.134-3.987-1.542-8.296-2.345-12.164-2.134-6.107.333-14.531 3.27-19.177 9.961-.606-1.153-2.118-1.438-3.097-.585-15.522 13.528.921 35.339.921 35.339 0-.266-.759-8.121.862-14.126-1.176-6.378-.309-13.526 6.217-19.213z" fill="#212121"></path></g></g></g><g><g><g><g><path d="m278.889 199.36s3.652-5.766 5.811-3.874c5.374 4.712-.725 17.45-5.314 14.426" fill="#ffc5b7"></path></g></g></g><g><g><g><path d="m239.724 199.36s-3.652-5.766-5.811-3.874c-5.374 4.712.725 17.45 5.314 14.426" fill="#ffc5b7"></path></g></g></g></g></g></g><g><g><g><g><path d="m32 91.288h403.579v45h-403.579z" fill="#fff" transform="matrix(-1 0 0 -1 467.579 227.575)"></path></g></g></g><g><g><g><g><circle cx="117.46" cy="113.447" fill="#ffc31a" r="9"></circle></g></g></g><g><g><g><circle cx="85.96" cy="113.447" fill="#61ceac" r="9"></circle></g></g></g><g><g><g><circle cx="54.46" cy="113.447" fill="#f955af" r="9"></circle></g></g></g></g></g></g><g><g><g><g><path d="m32 135.947h50v249h-50z" fill="#865acc"></path></g></g></g><g><g><g><g><ellipse cx="57" cy="161.968" fill="#ccc" rx="17.469" ry="17.5"></ellipse></g></g></g><g><use fill="#fff" xlink:href="#SVGID_1_"></use><g clip-path="url(#SVGID_2_)"><g><g><g><path d="m59.345 165.69h-4.69c-5.714 0-10.346 4.677-10.346 10.447v13.583h25.382v-13.583c0-5.77-4.632-10.447-10.346-10.447z" fill="#f955af"></path></g></g></g><g><g><g><ellipse cx="57" cy="159.596" fill="#ffc0b3" rx="9.014" ry="9.101"></ellipse></g></g></g><g><g><g><path d="m60.768 151.328c-1.147-.534-2.423-.834-3.768-.834-4.978 0-9.014 4.075-9.014 9.101 0 .001 9.748-.509 12.782-8.267z" fill="#333"></path></g></g></g></g></g></g><g><g><g><g><path d="m69.163 236.984h-24.326c-1.125 0-2.037-.912-2.037-2.037s.912-2.037 2.037-2.037h24.325c1.125 0 2.037.912 2.037 2.037s-.911 2.037-2.036 2.037z" fill="#fff"></path></g></g></g><g><g><g><path d="m69.163 206.984h-24.326c-1.125 0-2.037-.912-2.037-2.037s.912-2.037 2.037-2.037h24.325c1.125 0 2.037.912 2.037 2.037s-.911 2.037-2.036 2.037z" fill="#fff"></path></g></g></g><g><g><g><path d="m69.163 266.984h-24.326c-1.125 0-2.037-.912-2.037-2.037s.912-2.037 2.037-2.037h24.325c1.125 0 2.037.912 2.037 2.037s-.911 2.037-2.036 2.037z" fill="#fff"></path></g></g></g><g><g><g><path d="m69.163 296.984h-24.326c-1.125 0-2.037-.912-2.037-2.037s.912-2.037 2.037-2.037h24.325c1.125 0 2.037.912 2.037 2.037s-.911 2.037-2.036 2.037z" fill="#fff"></path></g></g></g><g><g><g><path d="m69.163 326.984h-24.326c-1.125 0-2.037-.912-2.037-2.037s.912-2.037 2.037-2.037h24.325c1.125 0 2.037.912 2.037 2.037s-.911 2.037-2.036 2.037z" fill="#fff"></path></g></g></g><g><g><g><path d="m69.163 356.984h-24.326c-1.125 0-2.037-.912-2.037-2.037s.912-2.037 2.037-2.037h24.325c1.125 0 2.037.912 2.037 2.037s-.911 2.037-2.036 2.037z" fill="#fff"></path></g></g></g></g></g></g><g><g><g><g><path d="m107 311.067h84.941v48.88h-84.941z" fill="#f955af"></path></g></g></g><g><g><g><g><path d="m119 311.067h-12v48.88h84.941v-12h-52.941c-11.046 0-20-8.954-20-20z" fill="#f7199e"></path></g></g></g></g><g><g><g><circle cx="131.471" cy="335.507" fill="#fff" r="15"></circle></g></g></g><g><g><g><g><path d="m172.941 345.044h-14.215c-1.125 0-2.037-.912-2.037-2.037s.912-2.037 2.037-2.037h14.215c1.125 0 2.037.912 2.037 2.037s-.912 2.037-2.037 2.037z" fill="#fff"></path></g></g></g><g><g><g><path d="m182.941 330.044h-24.215c-1.125 0-2.037-.912-2.037-2.037s.912-2.037 2.037-2.037h24.215c1.125 0 2.037.912 2.037 2.037s-.912 2.037-2.037 2.037z" fill="#fff"></path></g></g></g></g></g><g><g><g><g><path d="m217 311.067h84.941v48.88h-84.941z" fill="#ffc31a"></path></g></g></g><g><g><g><g><path d="m229 311.067h-12v48.88h84.941v-12h-52.941c-11.046 0-20-8.954-20-20z" fill="#ffaf00"></path></g></g></g></g><g><g><g><circle cx="241.471" cy="335.507" fill="#fff" r="15"></circle></g></g></g><g><g><g><g><path d="m282.941 345.044h-14.215c-1.125 0-2.037-.912-2.037-2.037s.912-2.037 2.037-2.037h14.215c1.125 0 2.037.912 2.037 2.037s-.912 2.037-2.037 2.037z" fill="#fff"></path></g></g></g><g><g><g><path d="m292.941 330.044h-24.215c-1.125 0-2.037-.912-2.037-2.037s.912-2.037 2.037-2.037h24.215c1.125 0 2.037.912 2.037 2.037s-.912 2.037-2.037 2.037z" fill="#fff"></path></g></g></g></g></g><g><g><g><g><path d="m327 311.067h84.941v48.88h-84.941z" fill="#865acc"></path></g></g></g><g><g><g><g><path d="m339 311.067h-12v48.88h84.941v-12h-52.941c-11.046 0-20-8.954-20-20z" fill="#6a42ba"></path></g></g></g></g><g><g><g><circle cx="351.471" cy="335.507" fill="#fff" r="15"></circle></g></g></g><g><g><g><g><path d="m392.941 345.044h-14.215c-1.125 0-2.037-.912-2.037-2.037s.912-2.037 2.037-2.037h14.215c1.125 0 2.037.912 2.037 2.037s-.912 2.037-2.037 2.037z" fill="#fff"></path></g></g></g><g><g><g><path d="m402.941 330.044h-24.215c-1.125 0-2.037-.912-2.037-2.037s.912-2.037 2.037-2.037h24.215c1.125 0 2.037.912 2.037 2.037s-.912 2.037-2.037 2.037z" fill="#fff"></path></g></g></g></g></g></g><g><g><g><g><path d="m302.016 32.087h165.984v158.148h-165.984z" fill="#e2d2f7"></path></g></g></g><g><g><g><g><g><g><ellipse cx="335.428" cy="97.917" fill="#fff" rx="22.486" ry="22.526"></ellipse></g></g></g><g><g clip-path="url(#SVGID_4_)"><g><g><g><path d="m338.446 102.708h-6.037c-7.355 0-13.317 6.02-13.317 13.447v17.484h32.672v-17.484c0-7.427-5.963-13.447-13.318-13.447z" fill="#f955af"></path></g></g></g><g><g><g><path d="m338.409 102.708h-6c-7.355 0-13.317 6.021-13.317 13.447v17.484h6v-17.484c0-7.427 5.962-13.447 13.317-13.447z" fill="#f7199e"></path></g></g></g><g><g><g><ellipse cx="335.428" cy="94.864" fill="#ffc0b3" rx="11.603" ry="11.715"></ellipse></g></g></g><g><g><g><path d="m340.278 84.222c-1.476-.687-3.118-1.073-4.851-1.073-6.408 0-11.603 5.245-11.603 11.715.001 0 12.549-.657 16.454-10.642z" fill="#333"></path></g></g></g></g></g></g><g><g><g><g><path d="m435.934 109.772h-61.493c-1.125 0-2.037-.912-2.037-2.037s.912-2.037 2.037-2.037h61.493c1.125 0 2.037.912 2.037 2.037s-.912 2.037-2.037 2.037z" fill="#fff"></path></g></g></g><g><g><g><path d="m455.537 90.134h-81.096c-1.125 0-2.037-.912-2.037-2.037s.912-2.037 2.037-2.037h81.096c1.125 0 2.037.912 2.037 2.037s-.912 2.037-2.037 2.037z" fill="#fff"></path></g></g></g></g></g><g><g><g><g><g><ellipse cx="335.428" cy="156.061" fill="#fff" rx="22.486" ry="22.526"></ellipse></g></g></g><g><g clip-path="url(#SVGID_6_)"><g><g><g><path d="m338.446 160.852h-6.037c-7.355 0-13.317 6.02-13.317 13.447v17.484h32.672v-17.484c0-7.426-5.963-13.447-13.318-13.447z" fill="#865acc"></path></g></g></g><g><g><g><path d="m338.409 160.852h-6c-7.355 0-13.317 6.021-13.317 13.447v17.484h6v-17.484c0-7.426 5.962-13.447 13.317-13.447z" fill="#6a42ba"></path></g></g></g><g><g><g><ellipse cx="335.428" cy="153.008" fill="#ffc0b3" rx="11.603" ry="11.715"></ellipse></g></g></g><g><g><g><path d="m340.278 142.366c-1.476-.687-3.118-1.073-4.851-1.073-6.408 0-11.603 5.245-11.603 11.715.001 0 12.549-.656 16.454-10.642z" fill="#333"></path></g></g></g></g></g></g><g><g><g><g><path d="m435.934 167.917h-61.493c-1.125 0-2.037-.912-2.037-2.037s.912-2.037 2.037-2.037h61.493c1.125 0 2.037.912 2.037 2.037s-.912 2.037-2.037 2.037z" fill="#fff"></path></g></g></g><g><g><g><path d="m455.537 148.279h-81.096c-1.125 0-2.037-.912-2.037-2.037s.912-2.037 2.037-2.037h81.096c1.125 0 2.037.912 2.037 2.037s-.912 2.037-2.037 2.037z" fill="#fff"></path></g></g></g></g></g></g><g><g><g><path d="m302.016 31.997h165.984v31.651h-165.984z" fill="#131c46"></path></g></g></g><g><g><g><g><circle cx="317.698" cy="47.897" fill="#fff" r="5.762"></circle></g></g></g><g><g><g><circle cx="339.21" cy="47.897" fill="#fff" r="5.762"></circle></g></g></g><g><g><g><circle cx="360.722" cy="47.897" fill="#fff" r="5.762"></circle></g></g></g></g></g><g><g><g><g><path d="m0 339.477h175.035v107.335h-175.035z" fill="#fff"></path></g></g></g><g><g><g><g><path d="m12 339.477h-12v107.335h175.035v-12h-113.035c-27.614 0-50-22.386-50-50z" fill="#e2d2f7"></path></g></g></g></g><g><g><g><path d="m175.035 385.198c-3.424 2.706-7.656 6.647-12.871 12.242-22.599 24.243-35.881-1.201-40.368-12.618-1.949-4.959-4.841-9.529-8.76-13.14-15.514-14.293-28.282-1.471-34.53 7.472-1.962 2.809-3.59 5.815-4.969 8.951-3.287 7.475-16.471 32.148-41.009 14.241-16.559-12.083-24.925-9.818-28.989-5.983-2.359 2.226-3.549 5.426-3.539 8.727v41.722l175.035-.058z" fill="#61ceac"></path></g></g></g><g><g><g><path d="m12.739 393.34c-4.331-.278-7.259 1.191-9.201 3.024-2.358 2.225-3.548 5.425-3.538 8.726v41.722l175.035-.058v-11.942h-113.035c-24.705 0-45.211-17.923-49.261-41.472z" fill="#52c1a1"></path></g></g></g></g></g></svg>